<?xml version="1.0" encoding="utf-8"?>
<!-- Generator: Adobe Illustrator 26.5.0, SVG Export Plug-In . SVG Version: 6.00 Build 0)  -->
<svg version="1.1" id="Layer_1" xmlns="http://www.w3.org/2000/svg" xmlns:xlink="http://www.w3.org/1999/xlink" x="0px" y="0px"
	 viewBox="0 0 150 60" style="enable-background:new 0 0 150 60;" xml:space="preserve">
<style type="text/css">
	.st0{fill:#5E5E5E;}
	.st1{fill:url(#SVGID_1_);}
	.st2{fill:#E30613;}
	.st3{fill:url(#SVGID_00000045586407763734028660000014661591551186452137_);}
</style>
<path class="st0" d="M10.4,26.2c0-3.3-0.4-4-0.4-4.7c0-0.8,2.9-1.1,3.7-1.1c1.1,0,1.1,1.3,1.3,2.1c0.7-1.3,1.7-2.5,3.6-2.5
	c1.6,0,1.9,1.1,1.9,1.8c0,0.6-0.4,2.8-1,2.8c-0.5,0-0.9-0.3-1.6-0.3c-1.4,0-2.2,1-2.6,1.7v10.6c0,0.7-0.6,1.1-2,1.1h-0.9
	c-1.4,0-2-0.4-2-1.1V26.2z"/>
<path class="st0" d="M21.9,21.6c-0.1-0.2-0.1-0.4-0.1-0.5c0-0.9,2.7-0.8,2.7-0.8c0.9,0,1.8,0.2,1.9,0.6l2.6,10.2L31.6,21
	c0.1-0.5,0.8-0.7,1.8-0.7h0.8c0.9,0,1.7,0.2,1.8,0.7l2.4,10.2L41.2,21c0.1-0.5,0.8-0.7,1.8-0.7h0.1c1.4,0,2.1,0.3,2.1,0.9
	c0,0.1,0,0.3-0.1,0.5L41.2,37c-0.1,0.5-0.9,0.7-1.8,0.7h-1.6c-1.1,0-1.7-0.2-1.8-0.7l-2.4-9.3L31.3,37c-0.1,0.5-0.9,0.7-1.8,0.7
	h-1.6c-1.1,0-1.7-0.2-1.8-0.7L21.9,21.6z"/>
<g>
	<linearGradient id="SVGID_1_" gradientUnits="userSpaceOnUse" x1="4.766" y1="37.3855" x2="50.557" y2="37.3855">
		<stop  offset="0" style="stop-color:#EB5C6D"/>
		<stop  offset="0.2429" style="stop-color:#C8738B"/>
		<stop  offset="0.4999" style="stop-color:#9D81A6"/>
		<stop  offset="0.7211" style="stop-color:#7386B9"/>
		<stop  offset="0.8949" style="stop-color:#4F88C4"/>
		<stop  offset="1" style="stop-color:#3D88C7"/>
	</linearGradient>
	<path class="st1" d="M50.5,32.5c-0.3-2.1-2.9-3.7-4.5-4c0.6,0.4,1.2,0.8,1.7,1.3c0.9,0.9,1.3,1.9,1,3.2c-0.3,1.2-1,2.1-1.9,3
		c-2,1.9-4.5,3.2-7.1,4.3c-4.6,1.9-9.5,2.9-14.4,3.4c-3.3,0.3-6.5,0.3-9.8-0.3c-1.8-0.3-3.6-0.8-5.2-1.9c-1.6-1.1-2.1-2.5-1.5-4.1
		l-0.7-2.4c0,0,0,0,0,0c-0.7,0.5-2,1.6-2.8,3.2c-1,1.9-0.6,3.7,1.1,5.1c1.5,1.3,3.4,1.9,5.2,2.3c4,0.9,8.1,0.9,12.2,0.5
		c4.4-0.4,8.7-1.2,12.9-2.6c3.5-1.1,6.8-2.5,9.8-4.6c1.3-0.9,2.4-1.9,3.2-3.2C50.3,34.6,50.7,33.6,50.5,32.5z"/>
</g>
<g>
	<path class="st0" d="M56.3,37.5c-0.9,0-1.4-0.3-1.4-0.8v-7.7c0-0.8,0-1.4-0.1-1.9c0-0.4-0.1-0.8-0.1-1c0-0.2-0.1-0.4-0.1-0.6
		c0-0.1,0.1-0.3,0.3-0.4s0.5-0.2,0.8-0.2c0.3-0.1,0.6-0.1,0.9-0.1c0.3,0,0.5,0,0.6,0c0.2,0,0.4,0.1,0.5,0.3c0.1,0.2,0.2,0.4,0.2,0.6
		c0,0.2,0.1,0.5,0.1,0.7c0.3-0.5,0.8-0.9,1.4-1.3c0.6-0.4,1.3-0.6,2-0.6c1.1,0,2,0.3,2.6,1c0.6,0.6,0.8,1.6,0.8,3v8.2
		c0,0.5-0.5,0.8-1.4,0.8h-0.6c-0.9,0-1.4-0.3-1.4-0.8v-7.7c0-0.5-0.1-0.8-0.3-1.1c-0.2-0.3-0.6-0.4-1.1-0.4c-0.5,0-0.9,0.2-1.2,0.5
		c-0.3,0.3-0.5,0.6-0.7,0.9v7.8c0,0.5-0.5,0.8-1.4,0.8H56.3z"/>
	<path class="st0" d="M70.8,37.7c-1.1,0-2-0.3-2.6-1c-0.6-0.6-0.8-1.6-0.8-3v-8.2c0-0.5,0.5-0.8,1.4-0.8h0.6c0.9,0,1.4,0.3,1.4,0.8
		v7.7c0,0.5,0.1,0.8,0.3,1.1s0.6,0.4,1.1,0.4c0.5,0,0.9-0.2,1.2-0.5s0.5-0.6,0.7-0.9v-7.8c0-0.5,0.5-0.8,1.4-0.8H76
		c0.9,0,1.4,0.3,1.4,0.8v7.7c0,0.8,0,1.5,0.1,1.9c0,0.4,0.1,0.8,0.1,1c0,0.2,0.1,0.4,0.1,0.6c0,0.1-0.1,0.3-0.3,0.4
		s-0.5,0.2-0.8,0.2c-0.3,0.1-0.6,0.1-0.9,0.1c-0.3,0-0.5,0-0.6,0c-0.2,0-0.4-0.1-0.5-0.3c-0.1-0.2-0.2-0.4-0.2-0.7
		c0-0.3-0.1-0.5-0.1-0.7c-0.3,0.5-0.8,0.9-1.4,1.3C72.2,37.5,71.5,37.7,70.8,37.7z"/>
	<path class="st0" d="M81.4,37.5c-0.9,0-1.4-0.3-1.4-0.8v-7.7c0-0.8,0-1.4-0.1-1.9c0-0.4-0.1-0.8-0.1-1c0-0.2-0.1-0.4-0.1-0.6
		c0-0.1,0.1-0.3,0.3-0.4s0.5-0.2,0.8-0.2c0.3-0.1,0.6-0.1,0.9-0.1c0.3,0,0.5,0,0.6,0c0.2,0,0.4,0.1,0.5,0.3c0.1,0.2,0.2,0.4,0.2,0.6
		c0,0.2,0.1,0.5,0.1,0.7c0.3-0.5,0.8-0.9,1.4-1.3c0.6-0.4,1.3-0.6,2-0.6c0.5,0,1,0.1,1.4,0.2c0.4,0.1,0.7,0.3,1,0.6
		c0.3,0.3,0.5,0.6,0.6,1c0.4-0.5,0.8-0.9,1.5-1.3c0.6-0.4,1.3-0.6,2.1-0.6c0.6,0,1.1,0.1,1.5,0.2c0.4,0.2,0.8,0.4,1,0.7
		c0.3,0.3,0.5,0.7,0.6,1.2s0.2,1.1,0.2,1.8v8.2c0,0.5-0.5,0.8-1.4,0.8h-0.6c-0.9,0-1.4-0.3-1.4-0.8v-7.7c0-0.5-0.1-0.8-0.3-1.1
		s-0.6-0.4-1.1-0.4c-0.3,0-0.6,0.1-0.9,0.2c-0.2,0.2-0.4,0.4-0.6,0.6S90.1,28.8,90,29c-0.1,0.2-0.1,0.3-0.2,0.3v-2
		c0.1,0.2,0.1,0.4,0.1,0.6c0,0.2,0,0.4,0,0.6v8.1c0,0.5-0.5,0.8-1.4,0.8H88c-0.9,0-1.4-0.3-1.4-0.8v-7.7c0-0.5-0.1-0.8-0.3-1.1
		s-0.6-0.4-1.1-0.4c-0.2,0-0.4,0-0.6,0.1c-0.2,0.1-0.4,0.2-0.5,0.4s-0.3,0.3-0.4,0.5c-0.1,0.2-0.2,0.3-0.3,0.5v7.8
		c0,0.5-0.5,0.8-1.4,0.8H81.4z"/>
	<path class="st0" d="M105.7,37.7c-0.7,0-1.3-0.2-1.9-0.5c-0.5-0.3-0.9-0.8-1.2-1.3c-0.1,0.3-0.2,0.7-0.3,1
		c-0.1,0.3-0.3,0.4-0.4,0.5c-0.2,0.1-0.5,0.1-0.8,0.1h-0.3c-0.9,0-1.4-0.3-1.4-0.8V20c0-0.5,0.5-0.8,1.4-0.8h0.6
		c0.9,0,1.4,0.3,1.4,0.8v5.4c0.2-0.2,0.6-0.3,1-0.5c0.4-0.2,0.9-0.2,1.4-0.2c1.5,0,2.7,0.6,3.6,1.8c0.8,1.2,1.3,2.8,1.3,4.7
		c0,1.4-0.2,2.6-0.6,3.6c-0.4,1-0.9,1.7-1.5,2.2S106.5,37.7,105.7,37.7z M104.7,34.7c0.6,0,1.1-0.3,1.4-0.9c0.3-0.6,0.5-1.5,0.5-2.7
		c0-1.2-0.2-2.1-0.5-2.7s-0.9-0.9-1.6-0.9c-0.4,0-0.7,0-0.9,0.1c-0.3,0.1-0.5,0.2-0.7,0.3v5.4c0.2,0.4,0.5,0.7,0.8,1
		C103.9,34.6,104.3,34.7,104.7,34.7z"/>
	<path class="st0" d="M117.7,37.7c-2.1,0-3.6-0.6-4.6-1.8c-1-1.2-1.4-2.7-1.4-4.7c0-1.6,0.2-2.9,0.7-3.8c0.5-1,1.1-1.7,2-2.1
		c0.8-0.4,1.8-0.7,2.9-0.7c1.2,0,2.2,0.3,2.9,0.9c0.7,0.6,1.2,1.3,1.6,2.3c0.3,0.9,0.5,2,0.5,3.1c0,0.1-0.1,0.3-0.2,0.5
		s-0.3,0.4-0.5,0.6c-0.2,0.2-0.3,0.3-0.4,0.3h-5.9c0.1,1,0.3,1.6,0.8,2s1.1,0.5,1.8,0.5c0.5,0,0.9-0.1,1.3-0.2
		c0.4-0.1,0.7-0.3,0.9-0.4s0.4-0.2,0.5-0.2c0.2,0,0.3,0.1,0.5,0.4c0.2,0.2,0.3,0.5,0.5,0.8c0.1,0.3,0.2,0.5,0.2,0.7
		c0,0.3-0.1,0.6-0.4,0.8c-0.3,0.2-0.7,0.4-1.1,0.5c-0.5,0.1-0.9,0.2-1.4,0.3C118.4,37.6,118,37.7,117.7,37.7z M115.2,29.9h3.7
		c0-0.7-0.1-1.3-0.4-1.8c-0.3-0.5-0.7-0.7-1.3-0.7c-0.5,0-0.9,0.2-1.3,0.5C115.6,28.3,115.4,29,115.2,29.9z"/>
	<path class="st0" d="M125.7,37.5c-0.9,0-1.4-0.3-1.4-0.8v-7.7c0-0.8,0-1.4-0.1-1.9c0-0.4-0.1-0.8-0.1-1c0-0.2-0.1-0.4-0.1-0.6
		c0-0.1,0.1-0.3,0.3-0.4s0.5-0.2,0.8-0.2c0.3-0.1,0.6-0.1,0.9-0.1c0.3,0,0.5,0,0.6,0c0.2,0,0.4,0.1,0.5,0.3c0.1,0.2,0.2,0.4,0.2,0.6
		c0,0.2,0.1,0.5,0.1,0.7c0.2-0.5,0.6-0.9,0.9-1.3c0.4-0.4,0.9-0.6,1.6-0.6c0.6,0,0.9,0.1,1.1,0.4c0.2,0.2,0.2,0.6,0.2,0.9
		c0,0.1,0,0.4-0.1,0.7c-0.1,0.3-0.1,0.6-0.2,0.9c-0.1,0.3-0.2,0.4-0.4,0.4s-0.3,0-0.5-0.1s-0.4-0.1-0.6-0.1c-0.3,0-0.6,0.1-0.8,0.2
		c-0.2,0.1-0.5,0.3-0.6,0.5c-0.2,0.2-0.3,0.4-0.4,0.5v7.8c0,0.5-0.5,0.8-1.4,0.8H125.7z"/>
	<path class="st0" d="M135.6,37.7c-0.6,0-1.1-0.1-1.7-0.2c-0.6-0.1-1.1-0.3-1.5-0.6c-0.4-0.2-0.6-0.5-0.6-0.9c0-0.2,0.1-0.5,0.2-0.7
		c0.1-0.3,0.3-0.5,0.5-0.8c0.2-0.2,0.4-0.3,0.5-0.3c0.1,0,0.3,0.1,0.5,0.2s0.5,0.2,0.8,0.3c0.3,0.1,0.7,0.2,1.1,0.2
		c0.9,0,1.4-0.3,1.4-1c0-0.4-0.2-0.7-0.5-0.8s-0.8-0.4-1.3-0.7c-0.4-0.2-0.8-0.4-1.2-0.7c-0.4-0.3-0.8-0.6-1.1-1.1s-0.5-1.1-0.5-2
		c0-0.8,0.2-1.5,0.5-2.1c0.3-0.6,0.8-1,1.5-1.4c0.6-0.3,1.4-0.5,2.2-0.5c0.4,0,0.9,0,1.5,0.1c0.5,0.1,1,0.2,1.4,0.4
		c0.4,0.2,0.6,0.5,0.6,0.8c0,0.2-0.1,0.4-0.2,0.7s-0.2,0.6-0.4,0.8c-0.1,0.2-0.3,0.4-0.4,0.4c-0.1,0-0.4-0.1-0.7-0.3
		c-0.3-0.2-0.8-0.3-1.4-0.3c-0.4,0-0.7,0.1-0.9,0.2s-0.3,0.4-0.3,0.7c0,0.4,0.2,0.7,0.5,0.9c0.4,0.2,0.8,0.4,1.4,0.6
		c0.4,0.1,0.8,0.3,1.2,0.6c0.4,0.3,0.8,0.6,1.1,1.1c0.3,0.5,0.5,1.1,0.5,2s-0.2,1.5-0.5,2.2c-0.4,0.6-0.9,1.1-1.5,1.4
		S136.5,37.7,135.6,37.7z"/>
</g>
<g>
	<path class="st2" d="M112.5,22.5c-0.5,0-0.9-0.1-1.2-0.3c-0.3-0.2-0.6-0.4-0.8-0.6c-0.1,0.2-0.1,0.3-0.2,0.5
		c-0.1,0.1-0.2,0.2-0.3,0.2s-0.3,0.1-0.6,0.1h-0.2c-0.3,0-0.6,0-0.7-0.1c-0.2-0.1-0.2-0.2-0.2-0.4l1.2-11.7c0-0.4,0.4-0.5,1-0.5h0.4
		c0.3,0,0.6,0.1,0.7,0.2c0.1,0.1,0.2,0.2,0.2,0.4l-0.4,4.2c0.2-0.3,0.5-0.5,0.8-0.7c0.3-0.2,0.7-0.3,1.1-0.3c0.4,0,0.8,0.1,1.2,0.2
		c0.4,0.2,0.7,0.4,0.9,0.7c0.3,0.3,0.5,0.7,0.6,1.1c0.1,0.5,0.2,1,0.2,1.6c0,1.1-0.2,2-0.5,2.8c-0.3,0.8-0.8,1.4-1.4,1.9
		C114,22.3,113.3,22.5,112.5,22.5z M112,20.5c0.3,0,0.6-0.1,0.8-0.2c0.2-0.1,0.5-0.4,0.6-0.6c0.2-0.3,0.3-0.6,0.4-1
		c0.1-0.4,0.1-0.9,0.1-1.4c0-0.4-0.1-0.7-0.2-1c-0.1-0.3-0.3-0.5-0.5-0.6c-0.2-0.1-0.5-0.2-0.8-0.2c-0.2,0-0.3,0-0.5,0.1
		c-0.1,0.1-0.3,0.2-0.4,0.3c-0.1,0.1-0.2,0.3-0.4,0.5l-0.2,2.2c0,0.2-0.1,0.5-0.1,0.7c0,0.2-0.1,0.5-0.1,0.7
		c0.1,0.1,0.3,0.2,0.4,0.3S111.8,20.5,112,20.5z"/>
	<path class="st2" d="M121.9,13.5c0.7,0,1.2,0.1,1.6,0.3c0.4,0.2,0.7,0.4,0.9,0.6s0.4,0.5,0.4,0.8s0.1,0.5,0.1,0.7
		c0,0.6-0.1,1-0.3,1.4c-0.2,0.4-0.5,0.7-0.8,0.9c-0.3,0.2-0.7,0.4-1.1,0.5c-0.4,0.1-0.8,0.2-1.2,0.2c-0.5,0-0.9,0-1.3-0.1
		s-0.7-0.1-1-0.2l0.6-0.8v0.7c0,0.5,0.1,0.9,0.2,1.2c0.1,0.3,0.3,0.5,0.6,0.6c0.3,0.1,0.5,0.2,0.9,0.2c0.4,0,0.8-0.1,1.2-0.2
		c0.4-0.1,0.6-0.2,0.9-0.4c0.2-0.1,0.4-0.2,0.4-0.2c0,0,0.1,0,0.1,0s0,0.1,0,0.2c0,0.2,0,0.4,0,0.7c0,0.3-0.1,0.5-0.1,0.6
		c-0.1,0.2-0.2,0.4-0.4,0.6c-0.2,0.2-0.5,0.3-0.7,0.4c-0.3,0.1-0.6,0.1-0.9,0.2c-0.3,0-0.5,0.1-0.8,0.1c-0.7,0-1.2-0.1-1.7-0.3
		c-0.5-0.2-0.9-0.4-1.2-0.7s-0.5-0.7-0.7-1.2c-0.1-0.5-0.2-1-0.2-1.5c0-1.3,0.2-2.3,0.6-3.1c0.4-0.8,0.9-1.4,1.6-1.7
		C120.4,13.6,121.1,13.5,121.9,13.5z M121.7,15.4c-0.5,0-0.9,0.2-1.1,0.5c-0.3,0.4-0.5,0.8-0.6,1.3h0.8c0.3,0,0.6,0,0.8-0.1
		s0.4-0.1,0.6-0.2s0.3-0.2,0.4-0.3c0.1-0.1,0.1-0.2,0.2-0.3c0-0.1,0.1-0.2,0.1-0.3c0-0.3-0.1-0.5-0.3-0.6
		C122.2,15.5,122,15.4,121.7,15.4z"/>
	<path class="st2" d="M128.4,22.5c-0.3,0-0.6,0-0.9-0.1c-0.3-0.1-0.5-0.2-0.7-0.4c-0.2-0.2-0.3-0.5-0.4-0.8
		c-0.1-0.3-0.1-0.7-0.1-1.2l0.4-4.4h-0.4c-0.3,0-0.5-0.3-0.4-0.8l0-0.3c0.1-0.6,0.3-0.8,0.6-0.8h0.4l0.3-1.5c0-0.2,0.1-0.4,0.3-0.5
		c0.2-0.1,0.4-0.1,0.6-0.1h0.4c0.3,0,0.5,0.1,0.7,0.2c0.1,0.1,0.2,0.3,0.2,0.5l-0.1,1.5h0.7c0.2,0,0.3,0.1,0.4,0.2
		c0.1,0.1,0.1,0.3,0,0.6l0,0.3c-0.1,0.6-0.3,0.8-0.6,0.8h-0.7l-0.4,4.4c0,0.2,0,0.4,0.1,0.5s0.2,0.2,0.4,0.2s0.3,0,0.4-0.1
		c0.1,0,0.2-0.1,0.2-0.1c0.1,0,0.1,0.1,0.1,0.2c0,0,0,0.1,0,0.3s0,0.4-0.1,0.7c-0.1,0.3-0.2,0.5-0.5,0.7
		C129,22.4,128.7,22.5,128.4,22.5z"/>
	<path class="st2" d="M133.7,22.5c-0.4,0-0.7-0.1-1.1-0.2c-0.3-0.2-0.6-0.4-0.8-0.7c-0.2-0.3-0.4-0.7-0.5-1.1
		c-0.1-0.5-0.2-1-0.2-1.6c0-1.1,0.1-2,0.4-2.8c0.3-0.8,0.7-1.4,1.3-1.9c0.5-0.5,1.2-0.7,1.8-0.7c0.5,0,0.9,0.1,1.2,0.3
		s0.6,0.4,0.8,0.6c0.1-0.2,0.1-0.4,0.2-0.5c0.1-0.1,0.1-0.2,0.3-0.2c0.1-0.1,0.3-0.1,0.6-0.1h0.2c0.3,0,0.6,0,0.7,0.1
		c0.2,0.1,0.2,0.2,0.2,0.4l-0.6,5.8c0,0.2,0,0.4,0.1,0.5c0.1,0.1,0.2,0.1,0.4,0.1c0.1,0,0.2,0,0.3-0.1c0.1,0,0.1-0.1,0.2-0.1
		c0.1,0,0.1,0.1,0.1,0.2c0,0,0,0.1,0,0.3s0,0.4-0.1,0.7c-0.1,0.3-0.2,0.5-0.5,0.7s-0.6,0.2-0.9,0.2c-0.5,0-0.9-0.1-1.2-0.3
		c-0.3-0.2-0.5-0.5-0.6-1c-0.2,0.4-0.5,0.7-0.9,0.9S134.2,22.5,133.7,22.5z M134.6,20.5c0.2,0,0.3,0,0.5-0.1
		c0.1-0.1,0.3-0.2,0.4-0.4c0.1-0.2,0.2-0.3,0.4-0.5l0.2-2.3c0-0.3,0.1-0.6,0.1-0.8c0-0.2,0.1-0.4,0.1-0.6c-0.1-0.1-0.3-0.2-0.5-0.3
		c-0.2-0.1-0.4-0.1-0.6-0.1c-0.4,0-0.7,0.1-0.9,0.4c-0.3,0.3-0.5,0.6-0.6,1.1c-0.1,0.5-0.2,1.1-0.2,1.8c0,0.4,0,0.7,0.1,1
		s0.2,0.5,0.4,0.6C134.2,20.4,134.4,20.5,134.6,20.5z"/>
</g>
</svg>
